<?xml version="1.0" encoding="UTF-8" standalone="no"?>
<!-- Created with Inkscape (http://www.inkscape.org/) -->

<svg
   version="1.1"
   id="svg1"
   width="1080"
   height="1080"
   viewBox="0 0 1080 1080"
   xmlns="http://www.w3.org/2000/svg"
   xmlns:svg="http://www.w3.org/2000/svg">
  <defs
     id="defs1" />
  <g
     id="layer1"
     style="display:inline"
     transform="translate(-0.17604275,-0.17604275)">
    <rect
       style="display:inline;fill:#f7f7f7;fill-opacity:1;stroke-width:2000.09"
       id="rect2315"
       width="1080"
       height="1080"
       x="0.17604275"
       y="0.17604275"
       ry="160" />
    <path
       style="display:inline;fill:#000000"
       d="M 85.734467,678.92733 C 76.32028,676.67092 67.825668,669.30848 64.405785,660.44135 62.570927,655.6839 62.5,651.20149 62.5,540 62.5,428.5533 62.56729,424.32552 64.417427,419.52817 66.93649,412.99631 73.792492,405.79389 80.286236,402.85756 85.5,400.5 85.5,400.5 162,400.5 c 76.5,0 76.5,0 81.71376,2.35756 6.49375,2.93633 13.34975,10.13875 15.86881,16.67061 C 261.43271,424.32552 261.5,428.5533 261.5,540 c 0,111.4467 -0.0673,115.67448 -1.91743,120.47183 -2.51906,6.53186 -9.37506,13.73428 -15.86881,16.67061 C 238.5,679.5 238.5,679.5 164,679.66493 c -41.51053,0.0919 -76.167422,-0.23472 -78.265533,-0.7376 z m 94.068923,-51.78901 c 8.67921,-2.70127 14.05804,-6.14121 20.5253,-13.12663 9.67493,-10.45007 15.87446,-26.78475 18.69407,-49.25558 1.85844,-14.81078 0.76264,-49.49452 -1.96068,-62.05897 -5.28623,-24.38875 -15.56183,-40.5057 -30.65989,-48.08902 -14.52859,-7.2973 -35.29104,-7.26988 -50.38475,0.0665 -10.3898,5.05005 -20.51907,18.08708 -25.50401,32.82534 -7.29531,21.56897 -8.73502,65.84142 -2.95928,91 6.82206,29.71623 21.36654,46.41907 43.97413,50.49977 7.11836,1.28487 21.1297,0.36246 28.27511,-1.86145 z m -27.01106,-17.48107 c -10.3684,-2.92171 -17.04616,-10.35906 -21.19817,-23.60944 -4.34342,-13.86123 -5.09762,-20.97779 -5.03903,-47.54781 0.0485,-21.97736 0.32621,-26.26951 2.29722,-35.5 2.91882,-13.66925 8.05949,-24.23939 13.96409,-28.71266 8.38058,-6.34907 21.85285,-7.94947 31.85895,-3.7846 14.38695,5.98833 21.94369,26.15871 23.03964,61.49726 1.38562,44.67858 -7.35366,71.67634 -24.90585,76.9403 -6.39648,1.91832 -14.69825,2.21567 -20.01685,0.71695 z m 184.94214,69.27008 c -9.41419,-2.25641 -17.9088,-9.61885 -21.32869,-18.48598 C 314.57093,655.6839 314.5,651.20149 314.5,540 c 0,-111.4467 0.0673,-115.67448 1.91743,-120.47183 2.51906,-6.53186 9.37506,-13.73428 15.86881,-16.67061 C 337.5,400.5 337.5,400.5 414,400.5 c 76.5,0 76.5,0 81.71376,2.35756 6.49375,2.93633 13.34975,10.13875 15.86881,16.67061 C 513.43271,424.32552 513.5,428.5533 513.5,540 c 0,111.4467 -0.0673,115.67448 -1.91743,120.47183 -2.51906,6.53186 -9.37506,13.73428 -15.86881,16.67061 C 490.5,679.5 490.5,679.5 416,679.66493 c -41.51053,0.0919 -76.16742,-0.23472 -78.26553,-0.7376 z m 94.06892,-51.78901 c 8.67921,-2.70127 14.05804,-6.14121 20.5253,-13.12663 9.67493,-10.45007 15.87446,-26.78475 18.69407,-49.25558 1.85844,-14.81078 0.76264,-49.49452 -1.96068,-62.05897 -5.28623,-24.38875 -15.56183,-40.5057 -30.65989,-48.08902 -14.52859,-7.2973 -35.29104,-7.26988 -50.38475,0.0665 -10.3898,5.05005 -20.51907,18.08708 -25.50401,32.82534 -7.29531,21.56897 -8.73502,65.84142 -2.95928,91 6.82206,29.71623 21.36654,46.41907 43.97413,50.49977 7.11836,1.28487 21.1297,0.36246 28.27511,-1.86145 z m -27.01106,-17.48107 c -10.3684,-2.92171 -17.04616,-10.35906 -21.19817,-23.60944 -4.34342,-13.86123 -5.09762,-20.97779 -5.03903,-47.54781 0.0485,-21.97736 0.32621,-26.26951 2.29722,-35.5 2.91882,-13.66925 8.05949,-24.23939 13.96409,-28.71266 8.38058,-6.34907 21.85285,-7.94947 31.85895,-3.7846 14.38695,5.98833 21.94369,26.15871 23.03964,61.49726 1.38562,44.67858 -7.35366,71.67634 -24.90585,76.9403 -6.39648,1.91832 -14.69825,2.21567 -20.01685,0.71695 z m 184.94214,69.27008 c -9.41419,-2.25641 -17.9088,-9.61885 -21.32869,-18.48598 C 566.57093,655.6839 566.5,651.20149 566.5,540 c 0,-111.4467 0.0673,-115.67448 1.91743,-120.47183 2.51906,-6.53186 9.37506,-13.73428 15.86881,-16.67061 C 589.5,400.5 589.5,400.5 666,400.5 c 76.5,0 76.5,0 81.71376,2.35756 6.49375,2.93633 13.34975,10.13875 15.86881,16.67061 C 765.43271,424.32552 765.5,428.5533 765.5,540 c 0,111.4467 -0.0673,115.67448 -1.91743,120.47183 -2.51906,6.53186 -9.37506,13.73428 -15.86881,16.67061 C 742.5,679.5 742.5,679.5 668,679.66493 c -41.51053,0.0919 -76.16742,-0.23472 -78.26553,-0.7376 z M 706,607.52988 v -19.47013 l 12.75,-0.27987 12.75,-0.27988 0.28621,-9.75 0.28621,-9.75 H 719.03621 706 V 509.5 451 h -11.41097 -11.41098 l -41.07212,58.75 -41.07212,58.75 -0.0169,9.75 L 601,588 h 42 42 V 607.5 627 H 695.5 706 Z M 623.62563,566.75 c 0.40902,-0.6875 12.84357,-18.5203 27.63234,-39.62845 14.78877,-21.10816 28.69677,-41.80816 30.90666,-46 l 4.01798,-7.62155 -0.58419,7 c -0.32131,3.85 -0.5874,25.1125 -0.59131,47.25 L 685,568 h -31.05902 c -24.57716,0 -30.90382,-0.26087 -30.31535,-1.25 z m 218.10884,112.16195 c -9.37756,-2.20933 -17.90527,-9.5943 -21.32869,-18.4706 C 818.57093,655.6839 818.5,651.20149 818.5,540 c 0,-111.4467 0.0673,-115.67448 1.91743,-120.47183 2.52326,-6.54274 9.38388,-13.7425 15.86881,-16.65324 4.85078,-2.17726 6.72799,-2.36468 26.96376,-2.69209 L 885,399.83094 V 406.41547 413 h 11.27623 C 934.26872,413 951,422.32442 951,443.49781 c 0,11.11217 -2.15851,16.8207 -8.91501,23.5772 -4.77383,4.77383 -6.89986,6.09965 -12.6611,7.89563 -17.97171,5.60242 -45.11266,2.66418 -68.67389,-7.43454 -1.60107,-0.68624 -1.75,0.11475 -1.75,9.41194 v 10.16202 l 5.25,2.30594 c 8.06718,3.54332 17.05049,5.51097 30.87493,6.76263 13.8479,1.25379 29.31899,0.22236 40.34055,-2.68944 14.80683,-3.91183 26.83374,-12.78526 32.77587,-24.18198 4.75073,-9.11168 6.09728,-15.8535 5.57145,-27.89498 -0.35786,-8.19511 -0.90869,-10.90256 -3.17972,-15.629 -5.47166,-11.38754 -16.21818,-19.00617 -31.13308,-22.07145 -7,-1.43863 -7,-1.43863 -2.62754,-2.64673 3.06224,-0.84608 12.35153,-1.11126 31,-0.88497 25.46554,0.30903 26.85506,0.42594 31.8413,2.67908 6.49284,2.93395 13.34934,10.13618 15.86884,16.66901 1.8501,4.79735 1.9174,9.02513 1.9174,120.47183 0,130.80325 0.6395,120.6602 -8.2037,130.11428 -7.4962,8.01408 -11.73252,9.25738 -33.0463,9.69864 L 958,680.19075 v -7.0655 -7.0655 l 12.75,-0.27987 12.75,-0.27988 0.28621,-9.75 0.28621,-9.75 H 971.03621 958 V 587.5 529 h -11.41097 -11.41098 l -41.07212,58.75 -41.07212,58.75 -0.0169,9.75 L 853,666 h 42 42 v 7 7 l -45.75,-0.10045 c -25.1625,-0.0553 -47.44449,-0.49967 -49.51553,-0.9876 z M 875.62563,644.75 c 0.40902,-0.6875 12.84357,-18.5203 27.63234,-39.62845 14.78877,-21.10816 28.69677,-41.80816 30.90666,-46 l 4.01798,-7.62155 -0.58419,7 c -0.32131,3.85 -0.5874,25.1125 -0.59131,47.25 L 937,646 h -31.05902 c -24.57716,0 -30.90382,-0.26087 -30.31535,-1.25 z"
       id="path2318" />
  </g>
</svg>
